<?xml version="1.0" standalone="no"?>
<!DOCTYPE svg PUBLIC "-//W3C//DTD SVG 20010904//EN"
 "http://www.w3.org/TR/2001/REC-SVG-20010904/DTD/svg10.dtd">
<svg version="1.0" xmlns="http://www.w3.org/2000/svg"
 width="595.000000pt" height="595.000000pt" viewBox="0 0 595.000000 595.000000"
 preserveAspectRatio="xMidYMid meet">
<metadata>
Created by potrace 1.11, written by Peter Selinger 2001-2013
</metadata>
<g transform="translate(0.000000,595.000000) scale(0.100000,-0.100000)"
fill="#000000" stroke="none">
<path d="M2730 5789 c-878 -81 -1677 -558 -2163 -1290 -502 -757 -623 -1689
-328 -2539 208 -601 613 -1127 1136 -1474 220 -146 531 -300 608 -300 73 -1
67 -15 426 924 264 687 331 871 326 896 -7 40 -47 77 -115 107 -224 98 -390
292 -467 544 -23 78 -26 105 -27 238 -1 126 3 162 21 227 117 404 468 657 883
635 359 -19 656 -244 770 -585 30 -87 34 -112 38 -239 4 -122 1 -156 -17 -237
-60 -257 -219 -454 -470 -580 -94 -48 -121 -75 -121 -121 0 -40 641 -1722 673
-1767 34 -46 70 -54 136 -32 76 25 399 189 491 249 533 346 920 814 1150 1389
138 344 202 682 202 1066 0 679 -232 1318 -672 1851 -116 140 -337 351 -483
460 -574 431 -1301 642 -1997 578z"/>
</g>
</svg>
